<svg xmlns="http://www.w3.org/2000/svg" version="1.1" viewBox="-5.0 -10.0 110.0 110.0">
 <path fill="white" d="m8.332 16.668c0-4.6055 3.7305-8.3359 8.3359-8.3359h66.664c4.6055 0 8.3359 3.7305 8.3359 8.3359v6.4141c0 2.4336-1.0625 4.7461-2.9102 6.3281l-26.258 22.508v28.066c0 6.543-7.1992 10.535-12.75 7.0625l-8.332-5.207c-2.4375-1.5234-3.918-4.1914-3.918-7.0664v-22.855l-26.258-22.508c-1.8477-1.582-2.9102-3.8945-2.9102-6.3281zm75 0h-66.664v6.4141l26.254 22.508c1.8477 1.582 2.9102 3.8945 2.9102 6.3281v22.855l8.3359 5.2109v-28.066c0-2.4336 1.0625-4.7461 2.9102-6.3281l26.254-22.508z" fill-rule="evenodd"/>
</svg>