<svg version="1.1" id="Layer_1" xmlns="http://www.w3.org/2000/svg" xmlns:xlink="http://www.w3.org/1999/xlink" x="0px" y="0px"
	 width="100%" viewBox="0 0 800 468" enable-background="new 0 0 800 528" xml:space="preserve">
<path fill="#000000" opacity="1.000000" stroke="none" 
	d="
M365.388275,176.125763 
	C373.795990,174.555130 381.776276,172.888443 389.829224,171.724747 
	C402.384644,169.910385 413.895020,173.895721 425.019684,179.042709 
	C435.522461,183.901978 446.480560,185.528915 457.979614,185.844254 
	C471.140259,186.205154 484.258423,187.959000 496.234039,194.083710 
	C502.673401,197.376999 507.616486,202.044846 508.521484,209.915512 
	C509.236053,216.130371 507.274750,220.362030 501.621552,222.755417 
	C496.481049,224.931747 491.049622,225.755081 485.484680,225.254745 
	C481.829834,224.926147 479.563995,222.959702 479.764252,219.077530 
	C479.950012,215.476471 482.148285,213.855255 485.663971,213.641373 
	C488.147583,213.490280 490.619720,213.116882 493.089874,212.789291 
	C494.541321,212.596802 496.432983,212.650360 496.268158,210.508347 
	C496.117432,208.549042 494.678528,207.832504 492.728424,207.798950 
	C489.733490,207.747467 486.743561,207.436920 483.748322,207.360672 
	C481.111420,207.293564 478.759277,206.169479 478.457855,203.689438 
	C478.008606,199.992950 475.554596,199.765564 472.944244,199.369278 
	C463.551514,197.943344 454.109985,197.175217 444.601532,197.225250 
	C427.435913,197.315567 410.270050,197.349945 393.104401,197.432205 
	C390.826324,197.443130 388.510925,197.305069 386.232758,198.212723 
	C387.027161,200.494476 389.100708,201.519699 390.444427,203.158234 
	C392.752808,205.973129 393.407166,208.935837 390.636749,211.624146 
	C387.818298,214.359085 385.156982,212.900711 382.812408,210.554886 
	C376.804413,204.543655 370.718414,198.607468 364.826324,192.484695 
	C362.595825,190.166885 360.464081,189.426697 357.340881,190.586746 
	C349.543884,193.482758 341.473511,195.665634 334.066010,199.561447 
	C331.389709,200.968994 328.731873,202.546402 327.802704,205.681198 
	C326.847778,208.902863 326.739563,211.826584 330.537231,213.677979 
	C333.767273,215.252640 335.251068,217.958755 333.422211,221.520020 
	C331.649017,224.972916 328.738068,225.485031 325.358978,224.139801 
	C320.252686,222.106934 316.456940,218.780518 315.695679,213.061462 
	C315.307648,210.146393 312.106750,207.269363 314.163483,204.547821 
	C317.712341,199.851868 319.614197,193.948212 325.233582,190.690536 
	C337.659454,183.487000 351.409332,180.146851 365.388275,176.125763 
M397.303223,186.672287 
	C401.313690,186.672287 405.324127,186.672287 409.334595,186.672287 
	C398.231079,180.920609 387.316101,184.246811 376.381683,186.671997 
	C383.038055,186.671997 389.694458,186.671997 397.303223,186.672287 
z"/>
<path fill="#000000" opacity="1.000000" stroke="none" 
	d="
M409.521973,320.448608 
	C402.407745,328.862000 393.416809,332.544922 382.978943,332.905304 
	C376.995697,333.111877 370.998901,332.890350 365.010254,332.987946 
	C361.339691,333.047760 359.620972,331.754517 359.650635,327.744232 
	C359.797180,307.944336 359.714844,288.142822 359.755280,268.341980 
	C359.759216,266.425232 359.364136,263.769989 362.303589,263.832397 
	C373.209839,264.064026 384.322296,261.849426 394.950562,265.804443 
	C415.987549,273.632782 424.036896,298.486877 411.756409,317.312042 
	C411.120850,318.286346 410.422546,319.219727 409.521973,320.448608 
M371.351959,317.149200 
	C370.922211,320.653473 372.533905,321.970245 375.957184,321.726593 
	C378.603271,321.538300 381.276459,321.764771 383.930389,321.646332 
	C395.461853,321.131683 404.322113,312.889801 405.442230,300.701904 
	C406.303864,291.325989 402.983978,279.980835 390.488678,275.911163 
	C386.043549,274.463409 381.364532,274.449615 376.699158,274.288025 
	C372.495270,274.142395 371.222168,275.769653 371.286316,279.830872 
	C371.477875,291.959106 371.351898,304.092346 371.351959,317.149200 
z"/>
<path fill="#000000" opacity="1.000000" stroke="none" 
	d="
M262.917816,282.767944 
	C264.786377,283.862854 266.319794,284.803467 267.889771,285.766510 
	C269.302887,281.284302 274.015808,279.272980 278.265228,281.136169 
	C280.706573,282.206604 280.232666,284.385925 280.238312,286.298767 
	C280.278137,299.783173 280.240631,313.267792 280.267792,326.752258 
	C280.274017,329.846680 280.584656,333.079193 276.008759,332.917206 
	C272.369141,332.788330 267.479218,334.431732 268.808807,326.808533 
	C263.376251,331.803558 257.936432,334.293640 251.444397,333.825073 
	C245.123489,333.368927 239.449600,331.396027 234.805634,326.840942 
	C225.601761,317.813293 223.857071,302.039276 230.975998,291.494263 
	C238.023178,281.055542 250.962906,277.419861 262.917816,282.767944 
M238.425171,310.780365 
	C241.053467,318.955383 246.980225,323.790100 254.117661,323.581451 
	C260.796082,323.386230 266.377777,318.900787 268.217407,312.250916 
	C270.394379,304.381775 267.509399,296.027588 261.408752,292.534515 
	C255.539688,289.174042 247.650024,290.306671 242.583710,295.205322 
	C238.333679,299.314728 237.935989,304.509857 238.425171,310.780365 
z"/>
<path fill="#000000" opacity="1.000000" stroke="none" 
	d="
M530.946899,280.833008 
	C534.080383,280.707001 535.352051,281.871765 535.342896,284.659332 
	C535.294189,299.474091 535.284424,314.289246 535.353821,329.103821 
	C535.367371,332.002472 533.883423,332.935791 531.346191,332.900177 
	C527.859131,332.851257 523.606628,334.183258 523.302124,327.851013 
	C516.773926,333.184235 509.728577,335.042816 501.999695,333.192200 
	C496.557312,331.889130 491.807007,329.199463 488.127258,324.828796 
	C480.159149,315.364685 479.811951,299.946991 487.368378,290.021667 
	C495.410492,279.458496 507.847870,277.625793 523.207092,285.062500 
	C523.460754,279.902618 527.236816,280.876587 530.946899,280.833008 
M520.119507,318.577179 
	C527.484863,308.931335 524.352905,294.621124 514.178101,291.430176 
	C507.027100,289.187500 498.933563,292.111511 495.550201,298.160126 
	C491.603058,305.216522 493.056183,314.804016 498.801788,319.613617 
	C505.210175,324.978058 512.643372,324.798370 520.119507,318.577179 
z"/>
<path fill="#000000" opacity="1.000000" stroke="none" 
	d="
M209.240723,264.414673 
	C213.387772,265.939240 216.980103,267.613861 219.930984,270.717224 
	C219.236862,273.680573 216.759918,275.348724 215.003250,277.434143 
	C213.167740,279.613159 211.380676,277.566406 209.709549,276.711121 
	C198.958725,271.208740 187.258820,273.167877 179.723007,281.767639 
	C172.027054,290.550171 171.626907,303.954803 178.788193,313.082703 
	C186.214066,322.547852 198.489212,325.195587 209.253387,319.654053 
	C213.819153,317.303467 217.790161,318.812531 219.693039,323.561249 
	C220.783188,326.281738 218.588928,327.103271 217.025146,328.153381 
	C204.821487,336.348389 186.514786,335.352905 174.941910,325.923248 
	C161.820984,315.232178 157.746445,297.585999 164.953384,282.664520 
	C172.237183,267.583893 188.840530,259.710480 205.463364,263.458862 
	C206.599152,263.714996 207.727142,264.005615 209.240723,264.414673 
z"/>
<path fill="#000000" opacity="1.000000" stroke="none" 
	d="
M475.330872,300.062958 
	C475.564209,301.462128 475.797424,302.435059 475.943665,303.420868 
	C476.946777,310.184326 475.970245,311.325073 469.152496,311.329895 
	C459.658356,311.336609 450.164154,311.307526 440.670166,311.344177 
	C439.240479,311.349701 437.438416,310.842957 436.652008,312.549530 
	C435.943298,314.087524 437.031067,315.448334 437.815979,316.693329 
	C442.402069,323.967560 453.015472,325.955627 462.469238,321.058899 
	C465.027191,319.733948 466.718201,319.466675 469.067200,321.546478 
	C472.316925,324.423737 472.140961,326.435669 468.773895,328.967804 
	C459.040375,336.287750 441.343048,335.188995 432.082336,326.535248 
	C422.643707,317.715210 420.903778,302.551758 428.278717,291.805389 
	C434.152130,283.247009 442.755920,279.189484 452.766785,280.196106 
	C464.328430,281.358734 472.518127,287.677277 475.330872,300.062958 
M440.710205,294.155273 
	C438.648346,296.398346 435.990204,298.361450 436.924072,302.603271 
	C446.138428,302.421051 455.279846,303.198792 464.453094,302.194000 
	C463.158142,291.278564 451.325409,287.233398 440.710205,294.155273 
z"/>
<path fill="#000000" opacity="1.000000" stroke="none" 
	d="
M591.223755,333.893250 
	C576.010925,331.673676 567.937622,325.156891 565.152832,313.165436 
	C562.340515,301.055359 567.601562,289.021606 578.166260,283.399017 
	C588.854065,277.710846 602.003662,279.565521 609.862671,287.881195 
	C615.272888,293.605804 616.797729,300.544189 616.313293,308.172791 
	C616.110046,311.372162 613.951416,311.311676 611.726074,311.314545 
	C602.066345,311.326965 592.406677,311.326752 582.746948,311.330811 
	C580.941345,311.331573 579.135742,311.330902 577.314209,311.330902 
	C577.706360,318.062256 583.095520,323.068176 590.311218,323.586517 
	C595.019592,323.924774 599.710266,323.449860 603.740784,320.728394 
	C607.856445,317.949463 609.547546,321.534546 611.423401,323.663696 
	C613.848999,326.416931 610.916199,327.797363 609.167480,329.068604 
	C603.963379,332.851746 597.884277,333.716309 591.223755,333.893250 
M603.679565,296.876465 
	C599.371887,291.361267 593.887390,289.050415 587.022095,291.093842 
	C581.559631,292.719727 578.198914,296.378632 576.655640,302.559784 
	C586.638916,302.535126 595.956238,303.088898 605.082703,302.273315 
	C605.721191,300.005371 604.717529,298.788757 603.679565,296.876465 
z"/>
<path fill="#000000" opacity="1.000000" stroke="none" 
	d="
M347.189819,234.192719 
	C338.240417,228.804764 334.951599,220.678452 337.907928,212.004456 
	C340.451324,204.542023 348.531586,199.198410 356.168030,199.928818 
	C366.073517,200.876236 372.799683,209.155029 372.318756,219.807693 
	C371.914978,228.750992 364.027771,235.688507 354.389069,235.504684 
	C352.067383,235.460419 349.709503,235.423615 347.189819,234.192719 
M349.723724,215.422867 
	C348.855682,220.554443 350.275299,223.313126 354.040680,223.683228 
	C357.082550,223.982239 359.214966,222.529526 360.279633,219.796432 
	C361.325562,217.111542 360.211731,214.748367 357.992554,213.293304 
	C355.096497,211.394470 352.328827,212.005081 349.723724,215.422867 
z"/>
<path fill="#000000" opacity="1.000000" stroke="none" 
	d="
M464.472351,201.118958 
	C472.412750,205.040207 476.659424,211.728836 476.157288,219.104630 
	C475.682190,226.083420 470.548004,232.711227 464.012726,234.782257 
	C456.785400,237.072617 449.040985,234.934555 444.480408,229.389755 
	C439.654877,223.522873 439.223114,214.649475 443.433838,207.882172 
	C447.503418,201.341751 455.137421,198.787720 464.472351,201.118958 
M463.737549,219.138916 
	C464.094269,215.717117 462.895508,213.160446 459.352570,212.468933 
	C456.197693,211.853134 453.762787,213.231888 452.708771,216.319473 
	C451.712097,219.239014 452.839417,221.735870 455.503815,222.998322 
	C459.043274,224.675354 461.945648,223.663086 463.737549,219.138916 
z"/>
<path fill="#000000" opacity="1.000000" stroke="none" 
	d="
M556.576904,322.698181 
	C556.681396,324.278107 556.837036,325.441864 556.795715,326.598633 
	C556.587219,332.432373 552.530823,334.900177 547.064636,332.637726 
	C545.126831,331.835663 544.929565,330.259644 544.928772,328.560303 
	C544.919434,308.110657 544.989197,287.660706 544.886475,267.211578 
	C544.861755,262.283997 548.026245,262.823822 551.266174,262.633179 
	C555.247009,262.398895 557.023560,263.732635 556.965271,267.957306 
	C556.715271,286.063019 556.662170,304.171417 556.576904,322.698181 
z"/>
<path fill="#000000" opacity="1.000000" stroke="none" 
	d="
M289.714447,294.012573 
	C289.714447,291.353851 289.914276,289.170441 289.674438,287.036438 
	C289.142609,282.304657 290.927612,280.496979 295.817322,280.716431 
	C299.704773,280.890869 301.866455,281.772156 301.377716,286.093536 
	C301.257294,287.158386 300.979095,288.401154 302.116852,289.667450 
	C306.049530,284.075165 311.184662,280.582397 318.176941,280.396301 
	C320.495575,280.334595 323.111389,280.402679 322.532135,283.472443 
	C322.016541,286.204681 324.646729,290.545898 319.089752,291.324097 
	C307.181610,292.991699 301.414856,299.762970 301.354248,311.869141 
	C301.326782,317.354645 301.157776,322.848663 301.402771,328.323181 
	C301.582306,332.335419 299.500519,333.139832 296.194397,332.979919 
	C293.045654,332.827637 289.650726,333.383453 289.699829,328.420868 
	C289.811707,317.118408 289.722382,305.813965 289.714447,294.012573 
z"/>
<path fill="#000000" opacity="1.000000" stroke="none" 
	d="
M654.872498,280.370667 
	C659.157349,282.769714 657.212219,286.442017 657.024353,289.429718 
	C656.846313,292.261200 653.918274,291.119873 652.123657,291.349945 
	C643.459839,292.460693 636.614441,299.767639 636.356079,308.603210 
	C636.166565,315.083313 636.098877,321.580566 636.351379,328.055542 
	C636.537720,332.835541 633.651123,332.928833 630.240662,332.976227 
	C626.835083,333.023529 624.546875,332.487885 624.605286,328.142700 
	C624.790833,314.343140 624.728577,300.538910 624.621887,286.737579 
	C624.594116,283.152100 624.927490,280.606476 629.576904,280.733307 
	C633.639221,280.844086 637.113770,280.876862 636.336182,286.434204 
	C636.249146,287.056274 636.488159,287.723907 636.689331,289.205078 
	C641.673706,283.578278 647.209839,280.045929 654.872498,280.370667 
z"/>
<path fill="#000000" opacity="1.000000" stroke="none" 
	d="
M414.995728,228.988617 
	C404.676483,228.979568 394.855927,229.001953 385.036041,228.932800 
	C383.226715,228.920074 381.333191,228.806641 379.632751,228.260040 
	C377.184540,227.473099 376.014252,225.394836 375.832397,222.894958 
	C375.652191,220.417252 377.178558,218.895493 379.172089,217.782471 
	C380.995453,216.764435 383.023224,216.842361 385.020050,216.840530 
	C399.001495,216.827698 412.982971,216.817215 426.964417,216.827789 
	C428.291046,216.828796 429.663849,216.789673 430.934814,217.099182 
	C433.904358,217.822327 436.252655,219.421173 436.173981,222.829697 
	C436.098541,226.096680 434.124786,227.979736 430.940247,228.538483 
	C425.816498,229.437424 420.642365,228.798355 414.995728,228.988617 
z"/>
<path fill="#000000" opacity="1.000000" stroke="none" 
	d="
M324.027618,182.355057 
	C321.050323,182.334366 318.548462,182.469681 316.077332,182.253479 
	C312.432129,181.934601 310.104034,179.860535 310.283447,176.123825 
	C310.449341,172.669342 312.717316,170.734665 316.225494,170.699982 
	C323.192413,170.631088 330.162567,170.581467 337.127350,170.722946 
	C340.971863,170.801025 343.518311,172.699097 343.256897,176.893661 
	C343.020233,180.691315 340.734009,182.427078 336.958801,182.378342 
	C332.812042,182.324768 328.664185,182.358292 324.027618,182.355057 
z"/>
</svg>